HIERARCHY
ROOT Hips
{
    OFFSET 0.0 0.0 0.0
    CHANNELS 6 Xposition Yposition Zposition Zrotation Xrotation Yrotation
    JOINT LeftUpLeg
    {
        OFFSET 13.65136704143488 0.0 0.0
        CHANNELS 3 Zrotation Xrotation Yrotation
        JOINT LeftLeg
        {
            OFFSET 0.0 0.0 -45.44946480083768
            CHANNELS 3 Zrotation Xrotation Yrotation
            JOINT LeftFoot
            {
                OFFSET 0.0 0.0 -35.51062253850796
                CHANNELS 3 Zrotation Xrotation Yrotation
                JOINT LeftToeBase
                {
                    OFFSET 0.0 -13.245554096568505 0.0
                    CHANNELS 3 Zrotation Xrotation Yrotation
                    End Site
                    {
                        OFFSET 0 0 0
                    }
                }
            }
        }
    }
    JOINT RightUpLeg
    {
        OFFSET -13.65136704143488 0.0 0.0
        CHANNELS 3 Zrotation Xrotation Yrotation
        JOINT RightLeg
        {
            OFFSET 0.0 0.0 -45.44946480083768
            CHANNELS 3 Zrotation Xrotation Yrotation
            JOINT RightFoot
            {
                OFFSET 0.0 0.0 -35.51062253850796
                CHANNELS 3 Zrotation Xrotation Yrotation
                JOINT RightToeBase
                {
                    OFFSET 0.0 -13.245554096568505 0.0
                    CHANNELS 3 Zrotation Xrotation Yrotation
                    End Site
                    {
                        OFFSET 0 0 0
                    }
                }
            }
        }
    }
    JOINT Spine
    {
        OFFSET 0.0 0.0 12.234779817179426
        CHANNELS 3 Zrotation Xrotation Yrotation
        JOINT Spine1
        {
            OFFSET 0.0 0.0 12.200986689644422
            CHANNELS 3 Zrotation Xrotation Yrotation
            JOINT Spine2
            {
                OFFSET 0.0 0.0 12.200986689644422
                CHANNELS 3 Zrotation Xrotation Yrotation
                JOINT Spine3
                {
                    OFFSET 0.0 0.0 12.200986689644417
                    CHANNELS 3 Zrotation Xrotation Yrotation
                    JOINT Spine4
                    {
                        OFFSET 0.0 0.0 12.200986689644425
                        CHANNELS 3 Zrotation Xrotation Yrotation
                        JOINT RightShoulder
                        {
                            OFFSET -21.936318592225998 0.0 0.0
                            CHANNELS 3 Zrotation Xrotation Yrotation
                            JOINT RightArm
                            {
                                OFFSET -33.10191330719546 0.0 0.0
                                CHANNELS 3 Zrotation Xrotation Yrotation
                                JOINT RightForeArm
                                {
                                    OFFSET -32.6577339728339 0.0 0.0
                                    CHANNELS 3 Zrotation Xrotation Yrotation
                                    JOINT RightHand
                                    {
                                        OFFSET -11.167845237281618 0.0 0.0
                                        CHANNELS 3 Zrotation Xrotation Yrotation
                                        End Site
                                        {
                                            OFFSET 0 0 0
                                        }
                                    }
                                }
                            }
                        }
                        JOINT LeftShoulder
                        {
                            OFFSET 21.936318592225998 0.0 0.0
                            CHANNELS 3 Zrotation Xrotation Yrotation
                            JOINT LeftArm
                            {
                                OFFSET 33.10191330719546 0.0 0.0
                                CHANNELS 3 Zrotation Xrotation Yrotation
                                JOINT LeftForeArm
                                {
                                    OFFSET 32.6577339728339 0.0 0.0
                                    CHANNELS 3 Zrotation Xrotation Yrotation
                                    JOINT LeftHand
                                    {
                                        OFFSET 11.167845237281618 0.0 0.0
                                        CHANNELS 3 Zrotation Xrotation Yrotation
                                        End Site
                                        {
                                            OFFSET 0 0 0
                                        }
                                    }
                                }
                            }
                        }
                        JOINT Neck
                        {
                            OFFSET 0.0 0.0 12.200986762500484
                            CHANNELS 3 Zrotation Xrotation Yrotation
                            JOINT Head
                            {
                                OFFSET 0.0 0.0 25.439778368212444
                                CHANNELS 3 Zrotation Xrotation Yrotation
                                End Site
                                {
                                    OFFSET 0 0 0
                                }
                            }
                        }
                    }
                }
            }
        }
    }
}
MOTION
Frames: 9
Frame Time: 0.03333333333333333
32.35004142522812 -30.785479760169984 509.4889829635621 56.76729886580644 -76.41144556384542 56.07646678884297 7.002805328898163 -13.091443456206795 -28.720483665632795 -2.896297567748543 0.7624327329718449 61.22978031510084 -106.94017184139994 1.5902773407317584e-14 73.66364288500957 0.0 0.0 0.0 24.59262776314025 17.52485206184006 27.33199929279763 -32.97658876669093 -8.474990804697565 -59.21953113777347 101.94788789573371 -1.2722218725854067e-14 -65.15985922563978 0.0 0.0 0.0 0.10302832831049087 -8.822515872412394 0.03220563994286307 7.951386703658792e-16 0.0 0.0 7.951386703658792e-16 0.0 0.0 7.951386703658792e-16 0.0 0.0 7.951386703658792e-16 0.0 0.0 118.76796246679059 9.144077039597654 -151.1016113739482 113.48852021851961 3.575215212917353e-15 6.1479652398351924e-15 -1.340492088670055e-15 -24.041547068359673 1.340492088670055e-15 1.5902773407317584e-15 0.0 0.0 -161.89546577352218 15.306928264189217 161.66765792320035 -119.06417351921014 -3.870005934796479e-15 5.966799349193626e-15 -180.0 -40.38258677677889 -180.0 -7.951386703658792e-16 -8.276074308844047e-33 1.1927080055488188e-15 -2.1807760750478775 -1.4722532943285903e-14 5.150663678468698e-16 7.951386703658792e-16 0.0 0.0
32.35004142522812 -30.785479760169984 509.4889829635621 56.76729886580644 -76.41144556384542 56.07646678884297 7.002805328898163 -13.091443456206795 -28.720483665632795 -2.896297567748543 0.7624327329718449 61.22978031510084 -106.94017184139994 1.5902773407317584e-14 73.66364288500957 0.0 0.0 0.0 24.59262776314025 17.52485206184006 27.33199929279763 -32.97658876669093 -8.474990804697565 -59.21953113777347 101.94788789573371 -1.2722218725854067e-14 -65.15985922563978 0.0 0.0 0.0 0.10302832831049087 -8.822515872412394 0.03220563994286307 7.951386703658792e-16 0.0 0.0 7.951386703658792e-16 0.0 0.0 7.951386703658792e-16 0.0 0.0 7.951386703658792e-16 0.0 0.0 118.76796246679059 9.144077039597654 -151.1016113739482 113.48852021851961 3.575215212917353e-15 6.1479652398351924e-15 -1.340492088670055e-15 -24.041547068359673 1.340492088670055e-15 1.5902773407317584e-15 0.0 0.0 -161.89546577352218 15.306928264189217 161.66765792320035 -119.06417351921014 -3.870005934796479e-15 5.966799349193626e-15 -180.0 -40.38258677677889 -180.0 -7.951386703658792e-16 -8.276074308844047e-33 1.1927080055488188e-15 -2.1807760750478775 -1.4722532943285903e-14 5.150663678468698e-16 7.951386703658792e-16 0.0 0.0
32.35004142522812 -30.785479760169984 509.4889829635621 56.76729886580644 -76.41144556384542 56.07646678884297 7.002805328898163 -13.091443456206795 -28.720483665632795 -2.896297567748543 0.7624327329718449 61.22978031510084 -106.94017184139994 1.5902773407317584e-14 73.66364288500957 0.0 0.0 0.0 24.59262776314025 17.52485206184006 27.33199929279763 -32.97658876669093 -8.474990804697565 -59.21953113777347 101.94788789573371 -1.2722218725854067e-14 -65.15985922563978 0.0 0.0 0.0 0.10302832831049087 -8.822515872412394 0.03220563994286307 7.951386703658792e-16 0.0 0.0 7.951386703658792e-16 0.0 0.0 7.951386703658792e-16 0.0 0.0 7.951386703658792e-16 0.0 0.0 118.76796246679059 9.144077039597654 -151.1016113739482 113.48852021851961 3.575215212917353e-15 6.1479652398351924e-15 -1.340492088670055e-15 -24.041547068359673 1.340492088670055e-15 1.5902773407317584e-15 0.0 0.0 -161.89546577352218 15.306928264189217 161.66765792320035 -119.06417351921014 -3.870005934796479e-15 5.966799349193626e-15 -180.0 -40.38258677677889 -180.0 -7.951386703658792e-16 -8.276074308844047e-33 1.1927080055488188e-15 -2.1807760750478775 -1.4722532943285903e-14 5.150663678468698e-16 7.951386703658792e-16 0.0 0.0
32.3513906121254 -30.763970875740053 509.5941209793091 56.843734599777676 -76.50106104023025 56.13311052256114 5.693568263387137 -11.935787067428729 -28.20048465561345 -0.6139517453623246 0.17164011854006228 56.356305753868845 -100.5026877015123 1.5902773407317584e-14 59.61694498486697 6.361109362927035e-15 -3.1805546814635183e-15 -6.361109362927035e-15 24.880122976107604 17.7102904860674 27.190358565999222 -33.11326320810233 -8.505896101860245 -59.040394211840436 101.83936717949138 0.0 -65.00313149505193 0.0 0.0 -7.951386703658791e-16 0.07700615051602697 -8.840155797297387 0.034817300393732785 0.0 0.0 -7.951386703658791e-16 0.0 0.0 -7.951386703658791e-16 0.0 0.0 -7.951386703658791e-16 0.0 0.0 -7.951386703658791e-16 114.45660855016956 7.532794838106912 -149.3909995822914 110.52126886933435 7.945890108788643e-15 -2.9560258824418583e-16 0.0 -24.798130254038792 0.0 -7.951386703658792e-16 0.0 0.0 -161.52892453857856 15.241313952510078 161.50344667684902 -118.70798917508888 1.5607401371002095e-14 -1.1095558364000812e-14 -180.0 -40.58080258251416 180.0 0.0 0.0 4.373262687012335e-15 -2.135268765290101 7.751256160939203e-15 1.444515736750846e-16 0.0 0.0 0.0
32.34787166118622 -30.758343529701236 509.6168312072755 56.90139664022787 -76.51583944815152 56.19508431816977 5.145175537627135 -11.42031132543901 -27.576740128322527 -0.6605569886974533 0.1940290905365753 48.06582501036277 -64.50225977252818 3.1805546814635168e-15 36.80282363317985 0.0 0.0 -6.3611093629270335e-15 24.916445108905776 17.738341376653313 27.150803137286097 -33.11215940020922 -8.513551292276617 -59.00253380345709 101.82311623010658 -3.1805546814635168e-15 -64.97500557087393 0.0 0.0 0.0 0.07222672194972585 -8.830303589653772 0.029726304403520445 7.951386703658794e-16 0.0 0.0 7.951386703658794e-16 0.0 0.0 7.951386703658794e-16 0.0 0.0 7.951386703658794e-16 0.0 0.0 113.57811932032939 6.7628557074366835 -148.72324627234764 109.32467202901307 8.868350472411915e-15 -1.5098955436411218e-15 -4.2970971418402146e-15 -25.53386659765648 -9.736688981075642e-16 0.0 0.0 1.5902773407317584e-15 -161.43443363744478 15.217058819570902 161.43972406883944 -118.61361696535188 -3.246969355699031e-15 -5.470000213004511e-15 -180.0 -40.717023505264855 -180.0 7.951386703658791e-16 3.1805546814635168e-15 3.1805546814635168e-15 -2.116857466220494 4.37251651115024e-15 8.078297675190053e-17 0.0 -4.9696166897867443e-17 0.0
32.34351307153702 -30.753352653980258 509.63983898162843 56.96478930927054 -76.52938083546258 56.263986404941626 4.891198176320225 -11.176616579833478 -27.1970105918197 -1.3039265549908012 0.3939666014042136 38.3152915445812 -6.348482280153295 2.782985346280577e-15 41.52279907162851 0.0 0.0 0.0 24.953519001217135 17.769614211599674 27.109503239879327 -33.11233791889603 -8.521524785348356 -58.966486887141095 101.80771720158646 -2.2263882770244617e-14 -64.93873348011013 2.2069531490250793e-32 3.1805546814635168e-15 -7.951386703658792e-16 0.0678423051108689 -8.817133125819145 0.023915173652958643 7.951386703658792e-16 0.0 0.0 7.951386703658792e-16 0.0 0.0 7.951386703658792e-16 0.0 0.0 7.951386703658792e-16 0.0 0.0 105.10116629294866 1.9700753252321896 -145.83788647629547 102.25571995246503 0.0 0.0 1.5326226499716002e-15 -27.57286627653225 -1.2613876520230742e-15 -7.951386703658792e-16 0.0 0.0 -161.34975549502315 15.177156984544746 161.37079477784957 -118.51382405795854 -1.012140805521263e-14 7.870256051031224e-15 -180.0 -40.59999384493135 -180.0 0.0 0.0 7.951386703658792e-16 -2.0970666804502063 1.917239148306011e-15 -1.5554535900873673e-15 -7.951386703658792e-16 0.0 0.0
32.337802505493165 -30.74895919561386 509.6644460678101 57.0422682518151 -76.54003048926644 56.34806237258269 4.57154196248527 -10.866212770502601 -26.743648595223693 -3.4309664432228573 1.070554298801026 27.11553815558053 18.757313378191235 2.067360542951286e-14 61.65121982157903 1.5902773407317584e-15 -2.2069531490250793e-32 -1.5902773407317584e-15 25.00177638796774 17.813821029776875 27.06527131972214 -33.131457901398875 -8.533521082322615 -58.91269554284263 101.72557140195511 -9.54166404439055e-15 -64.86218649983182 0.0 0.0 0.0 0.06388726847352319 -8.801400360419587 0.017375047107579675 0.0 0.0 7.951386703658792e-16 0.0 0.0 7.951386703658792e-16 0.0 0.0 7.951386703658792e-16 0.0 0.0 7.951386703658792e-16 103.61667300512579 1.46306542466042 -145.28069581026966 101.5114102422399 -4.024217272584174e-15 4.9263970272556344e-15 1.0366975050367528e-15 -25.652948506238996 1.867010953144805e-15 0.0 0.0 0.0 -161.29232955099152 15.141019948747015 161.31374190502146 -118.43499407354446 1.3371483471096766e-14 -2.4122846587129113e-15 -180.0 -40.33941749540145 -180.0 0.0 0.0 -1.5902773407317584e-15 -2.0782147536156654 1.0642964336835442e-15 1.6098429363743099e-15 7.951386703658794e-16 4.9696166897867474e-17 7.951386703658794e-16
32.33106679916382 -30.74505296945572 509.69043674469 57.131137828874984 -76.54780258446146 56.44400367178153 4.255891851730052 -10.555865103209497 -26.282327718484105 -5.779676850630776 1.8600244001794317 18.34464040883507 30.902362292478063 1.90833280887811e-14 75.37189684663637 -3.1805546814635168e-15 4.4139062980501586e-32 -1.5902773407317584e-15 25.081243932701728 17.8873604622352 27.022903453024284 -33.192579290859804 -8.548376305183458 -58.8683509706456 101.64061128602802 6.3611093629270335e-15 -64.78521436015275 0.0 0.0 -7.951386703658792e-16 0.06027329519327566 -8.783647522114736 0.010224061236830877 0.0 0.0 7.951386703658794e-16 0.0 0.0 7.951386703658794e-16 0.0 0.0 7.951386703658794e-16 0.0 0.0 7.951386703658794e-16 96.82727139880394 -3.2018656179118157 -143.70060968220946 95.65089098082653 1.3699267344788938e-14 3.827353635554119e-15 -2.855613567300882e-15 -29.842028049229153 -5.698251290923315e-15 -3.9756933518293955e-16 5.517382872562698e-33 -1.5902773407317582e-15 -161.24776012381184 15.121238708640611 161.26069027333145 -118.4768288354748 -1.558498706528521e-14 1.1127019867844187e-14 180.0 -41.21729298897653 -180.0 1.5902773407317584e-15 1.1034765745125397e-32 7.951386703658792e-16 -2.0585826257744064 1.5757372191184465e-15 8.235774048873348e-16 0.0 0.0 0.0
32.32282522916794 -30.741436851024627 509.7186143875123 57.23013591932173 -76.55281698241251 56.55058396295321 3.98124663965169 -10.280974398112475 -25.87795784823244 -7.013241158630974 2.3178288819623396 12.97442880654217 33.06694723881779 6.3611093629270335e-15 81.47013136282015 -1.5902773407317584e-15 6.620859447075238e-32 -4.770832022195275e-15 25.180396580465807 17.98088026075943 26.983193809242866 -33.2794164954371 -8.564139590741616 -58.83070348009563 101.55225304772645 -3.1805546814635168e-15 -64.70509626878713 0.0 0.0 7.951386703658792e-16 0.056921086976946596 -8.764097716141132 0.0027683290871126764 -1.5902773407317584e-15 0.0 0.0 -1.5902773407317584e-15 0.0 0.0 -1.5902773407317584e-15 0.0 0.0 -1.5902773407317584e-15 0.0 0.0 89.01154498980593 -8.834305371520884 -142.64809493242382 89.07732004102759 -1.3457296344300135e-14 -4.606488547394425e-15 5.030869928876009e-15 -33.50096521176688 9.817888710962063e-15 4.969616689786745e-17 0.0 0.0 -161.21288121048335 15.124157144237566 161.2117112747286 -118.51841463454679 -1.4776145911472216e-14 1.2488188460650501e-14 -180.0 -41.970574240059655 -180.0 0.0 0.0 -3.975693351829396e-16 -2.040348987978617 1.0931423680823285e-14 1.9465898495989885e-16 -1.5902773407317584e-15 -4.969616689786745e-17 -6.896728590703373e-34
